<svg viewBox="0 0 143 143" xmlns="http://www.w3.org/2000/svg">
    <defs>
        <radialGradient id="a" cx="0" cy="0" r="1" gradientTransform="matrix(107.9 0 0 107.6 48.79 36.88)" gradientUnits="userSpaceOnUse">
            <stop stop-color="#5383EC" offset="0"/>
            <stop stop-color="#7F52FF" offset="0.867"/>
        </radialGradient>
        <linearGradient id="b" x1="95.16" x2="28.28" y1=".962" y2="76.86" gradientTransform="translate(7.5)" gradientUnits="userSpaceOnUse">
            <stop stop-color="#33C3FF" offset="0"/>
            <stop stop-color="#5383EC" offset="0.878"/>
        </linearGradient>
    </defs>
    <path fill="#6075f2" d="m133.6 35.75v71.5l-62.08 35.75-62.08-35.75v-71.5l62.08-35.75z"/>
    <path fill="#6b57ff" d="m95.82 57.46v28.09l-24.32 14.04v43.41l62.08-35.75v-71.5z"/>
    <path fill="url(#a)" d="m71.5 99.59-24.32-14.05v-28.09l-37.76-21.7v71.5l62.08 35.75z"/>
    <path fill="url(#b)" d="m47.18 57.46 24.32-14.04 24.32 14.04 37.76-21.7-62.08-35.75-62.08 35.75z"/>
    <path fill="#000" d="m71.5 43.41 24.33 14.04v28.09l-24.33 14.04-24.33-14.04v-28.09l24.33-14.04z"/>
</svg>
